<?xml version="1.0" encoding="UTF-8"?>
<svg id="Layer_1" data-name="Layer 1" xmlns="http://www.w3.org/2000/svg" viewBox="0 0 539.03 124.33">
  <defs>
    <style>
      .cls-1 {
        fill: #e35b25;
      }

      .cls-2 {
        fill: #fff;
      }

      .cls-3 {
        fill: #d8e0ea;
      }

      .cls-4 {
        fill: #214a98;
      }
    </style>
  </defs>
  <rect class="cls-1" x="84.08" y="25.45" width="59.25" height="77.92"/>
  <g>
    <path class="cls-4" d="M143.1,102.98V25.27h16.67v77.71h-16.67ZM201.74,102.98l-38.16-32.92c-2.89-2.46-3.42-4.49-3.42-6.84,0-2.78.96-4.92,4.17-7.59l35.91-30.36h24.9l-46.18,38.05,47.67,39.66h-24.9Z"/>
    <path class="cls-4" d="M233.34,102.98V25.27h70.54v16.67h-53.98v44.36h54.08v16.67h-70.65ZM236.22,70.05v-13.15h64.67v13.15h-64.67Z"/>
    <path class="cls-4" d="M315.31,102.98V25.27h16.67v77.71h-16.67Z"/>
    <path class="cls-4" d="M380.3,102.98v-28.22l-40.51-49.49h22.34l27.15,34.31,27.15-34.31h21.16l-40.62,49.49v28.22h-16.67Z"/>
    <path class="cls-4" d="M470.19,102.98c-22.12,0-38.37-17.1-38.37-39.66s16.25-38.05,38.37-38.05h19.24c22.87,0,38.69,15.5,38.69,38.05s-16.25,39.66-38.69,39.66h-19.24ZM489.43,86.3c12.93,0,22.02-9.3,22.02-22.12s-9.08-22.23-22.02-22.23h-19.24c-12.51,0-21.7,9.3-21.7,22.23s9.09,22.12,21.7,22.12h19.24Z"/>
  </g>
  <path class="cls-2" d="M129.14,53.44q-.57.37-1.5,1.06c-1.75,1.22-3.45,2.2-5.83,3.34,4.49.73,9.08,1.06,14.85,1.1-.88,1.18-1.39,2.16-1.96,3.87-8.46-.53-13.92-1.34-18.87-2.77-4.85,1.38-10.21,2.16-18.61,2.73q-.72-1.79-1.91-3.75c5.88-.16,10.16-.53,14.75-1.26-1.44-.69-2.42-1.26-4.07-2.4-2.17,1.06-3.4,1.55-6.65,2.61-.98-1.3-1.6-1.96-2.89-2.97,5.36-1.43,8.71-2.97,11.29-5.17-1.29-.37-1.65-.81-1.65-1.91v-4.4h-8.87v1.18c-.15,3.75-1.13,9.21-2.17,11.93-.83,2.04-1.75,3.83-3.04,5.7-1.55-1.79-2.11-2.28-4.23-3.67,3.45-4.81,4.28-9.9,4.28-26.23,0-.53,0-1.26-.05-2.2,0-1.67,0-2.2-.15-3.46,1.8.16,3.51.2,6.24.2h12.68c0-1.06-.05-1.63-.26-2.32h6.08c-.21.65-.26,1.22-.26,2.32h13.77c2.63,0,4.59-.08,5.78-.24v3.83c-1.19-.16-2.58-.2-4.54-.2h-9.59v1.51h7.58c2.06,0,3.3-.04,4.38-.12-.1.65-.1,1.14-.1,2.2v3.01c0,1.1,0,1.51.1,2.24-1.24-.08-2.53-.12-4.33-.12h-32.02l-.05,1.38h31.66c2.53,0,3.56-.04,4.43-.12l2.63,1.75q-.31.29-1.34,1.75c-1.03,1.39-1.55,2-2.47,2.93-1.55-.77-2.48-1.14-4.28-1.67.46-.41.98-.94,1.44-1.59h-13.61c1.13.33,2.11.69,4.23,1.59l-2.78,2c-2.37-1.3-3.25-1.67-5.41-2.4l2.17-1.18h-3.2v3.01c0,.49.1.65.52.73.46.12,2.73.2,4.9.2,2.94,0,4.07-.12,4.43-.45.36-.29.46-.77.57-2.44,1.5.57,2.68.9,4.02,1.06l1.75-1.06c2.63,1.59,4.38,2.85,6.96,5.09l-3.51,2.36c-1.6-1.59-2.63-2.48-4.74-4.11-.82,2-2.17,2.36-8.61,2.36,0,0-1.34,0-3.97-.04-.72.69-.77.69-1.39,1.26h10.16c2.17,0,2.89-.04,3.97-.16l3.3,2.12ZM97.28,49.53c1.91-1.51,2.78-2.57,4.07-5.21l3.97,1.38c-1.65,3.1-2.58,4.36-4.49,6.27l-3.56-2.44ZM104.96,30.34h-7.48v1.51h7.48v-1.51ZM104.96,34.74h-7.48v1.43h7.48v-1.43ZM116.82,30.34h-6.91v1.51h6.91v-1.51ZM116.82,36.17v-1.43h-6.91v1.43h6.91ZM110.99,54.34c1.55.86,2.78,1.43,4.85,2.08,1.91-.57,2.53-.86,5.05-2.08h-9.9ZM128.63,36.17v-1.43h-6.86v1.43h6.86Z"/>
  <path class="cls-2" d="M105.94,81.78c-1.8,0-3.15.04-4.69.16v-2.53c-2.58,1.18-4.28,1.83-7.32,2.85-1.13-2.04-1.6-2.69-2.99-4.28,4.33-1.1,8.2-2.65,12.68-5.05,3.87-2.16,5.98-3.71,8.56-6.31h6.08c2.48,2.57,5.05,4.4,9.23,6.56,4.23,2.2,8.25,3.71,12.68,4.68-1.19,1.47-1.86,2.61-2.73,4.48-2.94-.9-4.43-1.47-7.68-2.93v2.53c-1.44-.12-2.68-.16-4.74-.16h-6.6v4.03h13.35c2.32,0,4.02-.08,5.67-.24v4.44c-1.6-.16-3.4-.24-5.67-.24h-13.35v10.06c0,1.91-.82,3.14-2.32,3.58-1.03.33-2.48.45-5.05.45-1.24,0-2.78-.04-4.95-.08-.21-1.75-.57-2.85-1.29-4.36,2.48.24,4.23.33,5.83.33,1.75,0,2.01-.12,2.01-.98v-9h-13.56c-2.27,0-3.92.08-5.62.24v-4.44c1.6.16,3.51.24,5.62.24h13.56v-4.03h-6.7ZM107.69,92.41c-3.15,4.44-7.22,7.98-12.27,10.59-1.08-1.47-2.01-2.4-3.56-3.67,5.26-2.53,8.1-4.89,10.78-8.8l5.05,1.87ZM124.97,77.83h1.39c-4.69-2.36-7.73-4.36-11.14-7.41-3.45,3.05-6.55,5.21-10.78,7.41h20.52ZM127.65,90.54c3.15,4.03,5.88,6.15,11.19,8.64-1.55,1.34-1.86,1.75-3.61,3.99-5.11-2.69-9.33-6.27-12.58-10.71l5-1.91Z"/>
  <rect class="cls-3" x="16.7" y="28.33" width="19.06" height="60.52"/>
  <path class="cls-1" d="M84.08,103.22c0-14.59-6.45-27.67-16.66-36.54-5.79,4.45-12.54,7.71-19.88,9.42,10.45,4.56,17.76,14.98,17.76,27.12,0,.08,0,.16,0,.24h18.78c0-.08,0-.16,0-.24Z"/>
  <path class="cls-2" d="M73.53,101.67c-4.19,0-7.59-3.4-7.59-7.6s3.39-7.6,7.59-7.6,7.59,3.4,7.59,7.6-3.43,7.6-7.59,7.6ZM66.45,94.07c0,3.92,3.17,7.09,7.08,7.09s7.08-3.17,7.08-7.09-3.17-7.09-7.08-7.09-7.08,3.2-7.08,7.09ZM70.86,93.39c.39.38,1.31,1.34,1.55,1.6l-.49.7c-.2-.31-.65-.9-1.06-1.39v5.06h-.85v-5.21c-.39,1.26-.88,2.48-1.39,3.25-.1-.25-.31-.62-.47-.82.67-.96,1.39-2.83,1.76-4.38h-1.66v-.87h1.76v-2.5l1.14.08c-.02.1-.1.18-.29.2v2.22h1.35v.87h-1.35v1.18ZM78.53,94.48h-2.35c.62,1.36,1.65,2.7,2.63,3.38-.2.16-.47.46-.64.69-.9-.72-1.81-1.99-2.46-3.32v4.13h-.85v-4.12c-.64,1.32-1.55,2.6-2.43,3.32-.15-.21-.42-.51-.62-.67.96-.69,1.97-2.06,2.6-3.41h-2.06v-.87h2.51v-1.91h-1.34c-.18.6-.41,1.16-.65,1.58-.16-.13-.44-.33-.65-.44.49-.85.87-2.29,1.08-3.68l1.06.28c-.03.11-.13.16-.31.16-.08.39-.16.82-.28,1.23h1.09v-1.99l1.14.08c-.02.1-.08.18-.29.2v1.72h2.19v.87h-2.19v1.91h2.82v.87Z"/>
  <path class="cls-4" d="M16.7,25.36v10.32c0,10.56,8.52,19.13,19.06,19.21v-29.52h-19.06Z"/>
  <g>
    <path class="cls-4" d="M65.3,25.36h0c0,15.59-12.05,28.35-27.33,29.49-.72-.08-3.67-.08-4.39,0-5.32.61-9.98,3.42-13.04,7.5h-.09c-2.36,3.19-3.75,7.13-3.75,11.41v29.7h19.06v-29.73h0c6.62,0,12.93-1.33,18.68-3.75,17.41-7.31,29.64-24.54,29.64-44.62h0s-18.78,0-18.78,0Z"/>
    <polygon class="cls-4" points="16.7 47.95 16.7 47.95 16.71 47.96 16.7 47.95"/>
  </g>
</svg>